<svg xmlns="http://www.w3.org/2000/svg" viewBox="0 0 500 160" width="100%" height="100%">
  <defs>
    <!-- Gradient dla głównej dynamicznej pętli płynu (Serwatki) -->
    <linearGradient id="serwatkaFluidGrad" x1="10%" y1="10%" x2="90%" y2="90%">
      <stop offset="0%" stop-color="#8B5CF6" />
      <stop offset="60%" stop-color="#EC4899" />
      <stop offset="100%" stop-color="#3B82F6" />
    </linearGradient>
    
    <!-- Gradient dla wewnętrznej czystej kropli / rdzenia wartości -->
    <linearGradient id="pureCoreGrad" x1="0%" y1="100%" x2="100%" y2="0%">
      <stop offset="0%" stop-color="#3B82F6" stop-opacity="0.8" />
      <stop offset="100%" stop-color="#8B5CF6" stop-opacity="0.2" />
    </linearGradient>

    <!-- Filtr poświaty dla nowoczesnego, płynnego wyglądu (Neon Glow) -->
    <filter id="wheyGlow" x="-20%" y="-20%" width="140%" height="140%">
      <feGaussianBlur stdDeviation="6" result="blur" />
      <feComposite in="SourceGraphic" in2="blur" operator="over" />
    </filter>
  </defs>

  <!-- TŁO (opcjonalne, w eksporcie przezroczyste, tu dla podglądu) -->
  <!-- <rect width="100%" height="100%" fill="transparent" /> -->

  <!-- GRUPA SYMBOLU (LOGOMARK) -->
  <g transform="translate(10, 10)">
    

    <!-- GŁÓWNY SYMBOL (OSTRY I CZYSTY) -->
    <!-- Zewnętrzna abstrakcyjna kropla tworząca pętlę 'S' -->
    <path d="M 70 20 
             C 105 20, 125 50, 125 80 
             C 125 115, 95 135, 70 135 
             C 40 135, 20 110, 25 80 
             C 28 62, 42 45, 58 35
             C 62 32, 68 35, 65 40
             C 55 55, 48 70, 50 85
             C 53 105, 72 118, 90 110
             C 105 102, 110 80, 100 65
             C 90 50, 75 35, 70 20 Z" 
          fill="url(#serwatkaFluidGrad)" />
    
    <!-- Wewnętrzny, wznoszący rdzeń (czysta esencja / Net Worth) -->
    <path d="M 70 45
             C 85 60, 95 75, 90 92
             C 86 105, 72 112, 60 102
             C 50 92, 58 75, 70 45 Z" 
          fill="url(#pureCoreGrad)" />
          
    <!-- Minimalistyczny akcent - punkt szczytowy płynu -->
    <circle cx="70" cy="20" r="3" fill="#3B82F6" />
  </g>

  
  <!-- TYPOGRAFIA (Nazwa aplikacji i slogan) -->
  <g transform="translate(175, 0)">
    <!-- Nazwa główna -->
    <text x="0" y="85" fill="#F3F4F6" style="font-family: 'Inter', system-ui, -apple-system, sans-serif; font-weight: 800; letter-spacing: -0.02em;" font-size="44">SERWATKA</text>
    
    <!-- Slogan pod spodem -->
    <text x="3" y="112" fill="#F3F4F6" opacity="0.6" style="font-family: 'Inter', system-ui, sans-serif; font-weight: 500; letter-spacing: 0.15em;" font-size="11.5">NET WORTH TRACKER</text>
  </g>
  
</svg>